<svg xmlns="http://www.w3.org/2000/svg" width="522.652" height="103.957"><path fill="#B5152B" d="M81.56 51.98c0 22.52-18.26 40.78-40.78 40.78S0 74.5 0 51.98 18.26 11.2 40.78 11.2s40.78 18.25 40.78 40.78"/><path fill="#fff" d="M65.76 26.1s-.84 9.6-7.25 16.47c-6.4 6.87-14.16 10.04-15.94 8.38-1.78-1.66 1.1-9.4 7.5-16.27 6.4-6.87 15.7-8.6 15.7-8.6M15.83 26.08c0-.02 9.3 1.72 15.7 8.6 6.4 6.86 9.27 14.6 7.5 16.25-1.8 1.66-9.55-1.5-15.96-8.37-6.4-6.88-7.24-16.48-7.24-16.48M15.8 77.88s.85-9.6 7.25-16.48c6.4-6.87 14.17-10.04 15.95-8.38 1.78 1.66-1.08 9.4-7.5 16.26-6.4 6.88-15.7 8.62-15.7 8.6M65.76 77.88c0 .02-9.3-1.73-15.7-8.6-6.4-6.86-9.28-14.6-7.5-16.26 1.78-1.66 9.54 1.5 15.95 8.38 6.42 6.87 7.26 16.48 7.26 16.48"/><path fill="#55565A" d="M133.64 34.98h-20.68V22.84h53.5v12.14h-20.68v44.96h-12.14M191.96 79.94v-57.1h36.43v12.14h-24.3v10.28h24.3V57.4h-24.3v10.4h24.3v12.14M341.26 34.98h-20.68V22.84h53.5v12.14H353.4v44.96h-12.14M392.23 22.84h12.14v34.02c0 6.67 5.47 12.14 12.14 12.14 6.7 0 12.16-5.47 12.16-12.14V22.84h12.25v34.02c0 13.35-10.93 24.3-24.4 24.3-13.33 0-24.27-10.95-24.27-24.3M522.65 22.84v57.1H510.5V45.8l-18.26 18.17-18.27-18.16v34.14h-12.14v-57.1h6.35l24.06 23.96 24.07-23.96M306.02 22.84s-.92 10.6-7.98 18.15c-7.06 7.56-15.6 11.05-17.57 9.23-1.96-1.83 1.2-10.36 8.25-17.92 7.06-7.56 17.3-9.48 17.3-9.46M251.02 22.83c0-.02 10.24 1.9 17.3 9.46 7.05 7.56 10.2 16.08 8.25 17.9-1.96 1.84-10.5-1.65-17.57-9.22-7.06-7.57-7.98-18.15-7.98-18.15M251 79.9s.92-10.6 7.98-18.16c7.05-7.57 15.6-11.06 17.57-9.23 1.96 1.84-1.2 10.36-8.26 17.93C261.23 78 251 79.9 251 79.9M306.02 79.9s-10.24-1.9-17.3-9.47c-7.05-7.57-10.2-16.1-8.25-17.92 1.96-1.82 10.5 1.67 17.57 9.24 7.06 7.57 7.98 18.15 7.98 18.15"/><path fill="#55565A" d="M94.3 0c0 4.95 0 9.9 0 14.85 0 1.94 3 1.94 3 0 0-4.95 0-9.9 0-14.85 0-1.94-3-1.94-3 0zM94.3 29.7c0 4.96 0 9.9 0 14.86 0 1.94 3 1.94 3 0 0-4.95 0-9.9 0-14.85 0-1.92-3-1.92-3 0zM94.3 59.4c0 4.96 0 9.9 0 14.86 0 1.94 3 1.94 3 0 0-4.95 0-9.9 0-14.85 0-1.92-3-1.92-3 0zM94.3 89.1c0 4.96 0 9.9 0 14.86 0 1.93 3 1.93 3 0 0-4.95 0-9.9 0-14.85 0-1.93-3-1.93-3 0z"/></svg>